<svg xmlns="http://www.w3.org/2000/svg" xml:space="preserve" width="511px" height="512px" version="1.1" style="shape-rendering:geometricPrecision; text-rendering:geometricPrecision; image-rendering:optimizeQuality; fill-rule:evenodd; clip-rule:evenodd"
viewBox="0 0 510.999 511.999"
 xmlns:xlink="http://www.w3.org/1999/xlink">
 <defs>
  <style type="text/css">
   <![CDATA[
    .fil0 {fill:black}
   ]]>
  </style>
 </defs>
 <g id="Layer_x0020_1">
  <metadata id="CorelCorpID_0Corel-Layer"/>
  <path className="fil0" d="M408.667 85.667l0 -10.667c0,-33.995 -27.672,-61.667 -61.667,-61.667l-184 0c-33.995,0 -61.667,27.672 -61.667,61.667l0 10.667 307.334 0zm-277.334 246.666l0 149.666c0,9.209 7.458,16.667 16.667,16.667l214 0c9.208,0 16.667,-7.458 16.667,-16.667l0 -149.666 -247.334 0zm163.667 127.999l-80 0c-15.645,0 -28.333,-12.687 -28.333,-28.333 0,-15.646 12.687,-28.333 28.333,-28.333l80 0c15.645,0 28.333,12.688 28.333,28.333 0,15.646 -12.688,28.333 -28.333,28.333zm0 -64l-80 0c-15.646,0 -28.333,-12.687 -28.333,-28.333 0,-15.646 12.687,-28.332 28.333,-28.332l80 0c15.645,0 28.333,12.687 28.333,28.332 0,15.646 -12.687,28.333 -28.333,28.333zm-220.333 -10.667l0 -53.662c-13.59,-2.086 -24,-13.831 -24,-28.004 0,-15.645 12.687,-28.332 28.333,-28.332l352 0c15.646,0 28.333,12.687 28.333,28.332 0,14.173 -10.411,25.918 -24,28.004l0 53.663 0.667 0c33.995,0 61.666,-27.672 61.666,-61.667l0 -119.999c0,-33.995 -27.671,-61.667 -61.666,-61.667l-361 0c-33.995,0 -61.667,27.671 -61.667,61.667l0 119.999c0,33.885 27.492,61.486 61.334,61.666zm52.333 -149.332l-48 0c-15.646,0 -28.333,-12.688 -28.333,-28.333 0,-15.646 12.687,-28.333 28.333,-28.333l48 0c15.646,0 28.333,12.687 28.333,28.333 0,15.645 -12.687,28.333 -28.333,28.333zm295 -137.333l0 -24c0,-41.355 -33.646,-75 -75,-75l-184 0c-41.354,0 -75,33.645 -75,75l0 24 334 0zm-304 220l0 162.999c0,16.568 13.432,30 30,30l214 0c16.568,0 30,-13.432 30,-30l0 -162.999 -274 0zm177 127.999l-80 0c-8.287,0 -15,-6.713 -15,-15 0,-8.286 6.713,-15 15,-15l80 0c8.286,0 15,6.714 15,15 0,8.287 -6.714,15 -15,15zm0 -64l-80 0c-8.287,0 -15,-6.713 -15,-15 0,-8.286 6.713,-14.999 15,-14.999l80 0c8.286,0 15,6.713 15,14.999 0,8.287 -6.714,15 -15,15zm141 -253.999l-361 0c-41.354,0 -75,33.645 -75,75l0 119.999c0,41.355 33.646,75 75,75l13 0 0 -79.999 -9 0c-8.286,0 -15,-6.714 -15,-15.001 0,-8.286 6.714,-14.999 15,-14.999l352 0c8.286,0 15,6.713 15,14.999 0,8.287 -6.714,15.001 -15,15.001l-9 0 0 79.999 14 0c41.354,0 74.999,-33.645 74.999,-75l0 -119.999c0,-41.355 -33.645,-75 -74.999,-75zm-309 94l-48 0c-8.286,0 -15,-6.714 -15,-15 0,-8.287 6.714,-15 15,-15l48 0c8.286,0 15,6.713 15,15 0,8.286 -6.714,15 -15,15z"/>
 </g>
</svg>
