<svg xmlns="http://www.w3.org/2000/svg" xml:space="preserve" fill="#FFF" width="8px" height="10px" version="1.1" style="shape-rendering:geometricPrecision; text-rendering:geometricPrecision; image-rendering:optimizeQuality; fill-rule:evenodd; clip-rule:evenodd"
viewBox="0 0 2150.904 2897.455"
 xmlns:xlink="http://www.w3.org/1999/xlink">
    <defs>
        <style type="text/css">
        </style>
    </defs>
    <g id="Layer_x0020_1">
        <metadata id="CorelCorpID_0Corel-Layer"/>
        <path class="fil0" d="M164.461 1657.491l1821.979 0 0 0.249c45.579,0.007 86.686,18.335 116.289,47.941l0 0.246c29.764,29.771 48.175,70.809 48.175,116.05 0,21.433 -4.383,42.725 -12.651,62.691 -8.232,19.886 -20.235,38.063 -35.517,53.351l0 0.246 -910.99 910.991 -0.125 -0.124c-15.503,15.499 -33.632,27.547 -53.213,35.665 -19.965,8.273 -41.348,12.658 -62.958,12.658 -21.611,0 -42.994,-4.385 -62.957,-12.661 -19.575,-8.112 -37.704,-20.166 -53.213,-35.665l-0.124 0.125 -910.991 -910.991 0 -0.246c-15.276,-15.286 -27.279,-33.465 -35.516,-53.349 -8.266,-19.968 -12.649,-41.26 -12.649,-62.691 0,-45.241 18.411,-86.279 48.175,-116.05 29.752,-29.759 70.873,-48.18 116.286,-48.187l0 -0.249zm1821.979 126.281l0 0.249 -1821.979 0 0 -0.249c-10.472,0 -19.963,4.257 -26.827,11.121 -6.86,6.86 -11.104,16.434 -11.104,27.084 0,5.389 0.956,10.394 2.759,14.75 1.82,4.395 4.596,8.55 8.213,12.199l0.122 -0.122 910.991 910.991 0 0.246c3.414,3.417 7.618,6.167 12.316,8.113 4.369,1.81 9.297,2.771 14.519,2.771 5.224,0 10.154,-0.961 14.521,-2.768 4.698,-1.949 8.901,-4.694 12.316,-8.113l0 -0.247 910.991 -910.99 0.122 0.122c3.617,-3.649 6.393,-7.805 8.213,-12.202 1.805,-4.356 2.761,-9.363 2.761,-14.75 0,-10.586 -4.193,-20.109 -10.982,-26.959l-0.122 0.122c-7.017,-7.021 -16.522,-11.368 -26.83,-11.368z"/>
        <path class="fil1" d="M1986.44 1113.429l-1821.979 0c-55.893,-0.009 -101.196,-45.325 -101.196,-101.218 0,-26.827 10.676,-52.593 29.632,-71.562l910.991 -910.99c18.975,-18.988 44.727,-29.659 71.562,-29.659 26.839,0 52.591,10.671 71.564,29.656l910.991 910.991c18.958,18.971 29.634,44.737 29.634,71.564 0,55.893 -45.303,101.209 -101.196,101.221l-0.003 -0.003z"/>
    </g>
</svg>