 <svg
              width="8"
              height="8"
              viewBox="0 0 8 8"
              fill="none"
              xmlns="http://www.w3.org/2000/svg"
            >
              <path
                fill-rule="evenodd"
                clip-rule="evenodd"
                d="M1.4973 7.73766L4.00017 5.23513L6.5027 7.73766C6.86045 8.09541 7.39674 8.07928 7.73801 7.73801C8.07928 7.39674 8.07928 6.84397 7.73766 6.5027L5.23513 3.99983L7.73766 1.4973C8.09541 1.13955 8.07928 0.603264 7.73801 0.261994C7.39674 -0.0792751 6.84432 -0.0792761 6.5027 0.262338L4.00017 2.76487L1.4973 0.262338C1.13955 -0.0954123 0.603264 -0.0792751 0.261994 0.261994C-0.0792758 0.603264 -0.0792758 1.15568 0.262338 1.4973L2.76487 3.99983L0.262338 6.5027C-0.0954123 6.86045 -0.0792758 7.39674 0.261994 7.73801C0.603264 8.07928 1.13955 8.09541 1.4973 7.73766Z"
                fill="white"
              />
            </svg>