<svg xmlns="http://www.w3.org/2000/svg" xml:space="preserve" fill="#FFF" width="8px" height="10px" version="1.1" style="shape-rendering:geometricPrecision; text-rendering:geometricPrecision; image-rendering:optimizeQuality; fill-rule:evenodd; clip-rule:evenodd"
viewBox="0 0 281.123 378.697"
 xmlns:xlink="http://www.w3.org/1999/xlink">
    <defs>
        <style type="text/css">

        </style>
    </defs>
    <g id="Layer_x0020_1">
        <metadata id="CorelCorpID_0Corel-Layer"/>
        <path class="fil0" d="M21.495 145.526l238.133 0 0 0.032c1.347,0 2.589,-0.568 3.506,-1.485l0.016 0.015c0.887,-0.895 1.436,-2.14 1.436,-3.523 0,-0.704 -0.126,-1.359 -0.361,-1.928 -0.238,-0.575 -0.601,-1.118 -1.074,-1.595l-0.016 0.016 -119.066 -119.066 0 -0.032c-0.446,-0.447 -0.996,-0.806 -1.61,-1.061 -0.571,-0.236 -1.215,-0.362 -1.898,-0.362 -0.682,0 -1.326,0.126 -1.897,0.363 -0.614,0.254 -1.164,0.613 -1.61,1.06l0 0.032 -119.067 119.067 -0.015 -0.016c-0.473,0.477 -0.836,1.02 -1.074,1.594 -0.235,0.569 -0.361,1.223 -0.361,1.928 0,1.392 0.555,2.643 1.452,3.54 0.897,0.897 2.138,1.453 3.506,1.453l0 -0.032zm238.133 16.505l0 0.032 -238.133 0 0 -0.032c-5.936,-0.001 -11.31,-2.409 -15.199,-6.298 -3.89,-3.891 -6.296,-9.255 -6.296,-15.168 0,-2.801 0.573,-5.584 1.653,-8.194 1.077,-2.599 2.646,-4.974 4.642,-6.972l0 -0.033 119.067 -119.066 0.016 0.016c2.027,-2.026 4.396,-3.601 6.955,-4.661 2.609,-1.082 5.404,-1.655 8.228,-1.655 2.825,0 5.619,0.573 8.229,1.654 2.559,1.061 4.929,2.636 6.955,4.662l0.016 -0.016 119.066 119.066 0 0.032c1.998,1.998 3.567,4.374 4.643,6.973 1.08,2.61 1.653,5.393 1.653,8.194 0,5.913 -2.406,11.277 -6.296,15.168l0 0.032c-3.87,3.87 -9.243,6.265 -15.199,6.266z"/>
        <path class="fil1" d="M259.628 233.172l-238.133 0c-7.305,0.001 -13.226,5.924 -13.226,13.229 0,3.507 1.395,6.874 3.873,9.353l119.066 119.067c2.48,2.481 5.846,3.876 9.353,3.876 3.508,0 6.874,-1.395 9.354,-3.876l119.066 -119.066c2.478,-2.48 3.873,-5.847 3.873,-9.354 0,-7.305 -5.921,-13.228 -13.226,-13.229l0 0z"/>
    </g>
</svg>