<svg width="12" height="6" viewBox="0 0 12 6" fill="none" xmlns="http://www.w3.org/2000/svg">
<path d="M11.5561 4.31397L7.90536 3.51259C7.75398 3.04202 7.4106 2.68632 6.76445 2.56546L6.52999 1.45804H6.85583C6.96752 1.45804 7.05798 1.37405 7.05798 1.27034C7.05798 1.16662 6.96752 1.08252 6.85583 1.08252H6.45153L6.43491 1.00719C6.41645 0.9189 6.33338 0.855469 6.23646 0.855469C6.13953 0.855469 6.05643 0.9189 6.03797 1.00719L6.02228 1.08252H5.61704C5.50535 1.08252 5.4149 1.16662 5.4149 1.27034C5.4149 1.37405 5.50535 1.45804 5.61704 1.45804H5.94289L5.70936 2.56546C5.06228 2.68632 4.7189 3.04202 4.56752 3.51259L0.90845 4.31658C0.769065 4.34658 0.678583 4.47255 0.702583 4.60369C0.723814 4.72797 0.839212 4.8163 0.971217 4.8163C0.980448 4.8163 0.988737 4.81632 0.997045 4.81546L2.81275 4.65768C2.80536 4.69368 2.80075 4.73054 2.80075 4.76911C2.80075 5.09054 3.07858 5.35202 3.42012 5.35202C3.76166 5.35202 4.03952 5.09054 4.03952 4.76911C4.03952 4.69368 4.02474 4.62168 3.99704 4.55482L4.49737 4.51203C4.64506 5.30318 5.36784 5.90395 6.23646 5.90395C7.106 5.90395 7.82781 5.30318 7.97643 4.51203L8.47676 4.55482C8.44907 4.62168 8.43335 4.69368 8.43335 4.76911C8.43335 5.09054 8.71122 5.35202 9.05276 5.35202C9.39427 5.35202 9.67211 5.09054 9.67211 4.76911C9.67211 4.73054 9.6675 4.69368 9.66011 4.65768L11.4758 4.81546C11.485 4.81632 11.4933 4.8163 11.5017 4.8163C11.5072 4.8163 11.5127 4.8163 11.5192 4.8163C11.6623 4.80773 11.7749 4.69797 11.7749 4.5634C11.7749 4.43997 11.6807 4.33797 11.5561 4.31397Z" fill="white"/>
</svg>
